<?xml version="1.0" encoding="UTF-8"?>
<svg xmlns="http://www.w3.org/2000/svg" xmlns:xlink="http://www.w3.org/1999/xlink" version="1.1" id="Layer_1" x="0px" y="0px" width="100%" viewBox="0 0 350 350" enable-background="new 0 0 350 350" xml:space="preserve" style="background: transparent;">

<path fill="#690C0B" opacity="1.000000" stroke="none" d=" M196.213013,75.047409   C206.019485,77.653091 216.200455,79.320129 225.557037,83.053360   C247.259872,91.712692 263.116486,107.371597 274.741638,127.459587   C280.408752,137.252228 283.548126,147.948456 285.640350,158.957291   C286.352692,162.705505 286.260406,166.606644 286.636749,171.842484   C291.487061,169.444763 295.090027,167.663269 298.693359,165.882431   C309.056671,160.760605 313.803467,160.910675 320.761017,168.286072   C325.295654,173.093002 324.957855,178.672729 321.695709,184.759720   C319.799744,188.297531 311.128967,191.149994 307.038422,189.380524   C303.425201,187.817520 300.465118,187.518509 297.062256,189.894226   C295.001434,191.333023 292.339233,192.048187 289.845581,192.699051   C285.378265,193.865067 283.975342,197.038406 283.056610,201.156265   C278.706207,220.654968 267.591278,236.094193 254.421097,248.941849   C255.711411,255.823303 256.767578,262.208771 258.179169,268.514618   C258.589783,270.348846 260.133972,271.901093 260.955933,273.676422   C264.018646,280.291382 262.514679,285.780945 255.408493,286.693024   C250.104034,287.373810 244.576965,286.440277 239.158844,286.078705   C234.515991,285.768829 232.971054,282.585632 233.048874,278.527832   C233.138702,273.843384 233.607178,269.166168 233.974167,263.517548   C204.934189,278.154724 176.069138,277.919678 146.474960,267.181610   C145.996292,270.887573 145.158585,274.402222 145.174133,277.913086   C145.200943,283.967255 143.525375,286.531738 137.694946,286.891510   C133.076920,287.176422 128.377975,287.190308 123.789810,286.667572   C117.386597,285.938049 114.015846,279.532654 117.620224,274.218079   C121.760986,268.112579 121.433403,261.045776 122.891609,254.457611   C123.655853,251.004822 119.495964,249.244659 115.737633,248.955566   C108.167084,248.373230 100.550415,248.006256 93.060226,246.852676   C81.477226,245.068771 72.165184,238.912552 64.330872,230.384369   C64.000244,230.024460 63.834385,229.518250 63.529903,229.128510   C57.210907,221.039474 56.121281,220.542908 47.393734,225.961258   C43.052742,228.656296 39.631012,232.811737 35.701324,236.199722   C34.168373,237.521362 32.382381,238.549484 30.711634,239.711304   C29.576605,237.967728 27.891727,236.366989 27.395664,234.457428   C24.138319,221.918488 28.731489,210.449585 39.303505,202.680756   C44.086205,199.166183 49.458412,196.462738 54.490913,193.277130   C61.866146,188.608597 69.182358,183.846573 76.508804,179.101349   C77.762695,178.289230 78.827301,176.903366 80.175514,176.565674   C87.024460,174.850143 86.311752,169.522995 87.224724,164.196609   C88.861488,154.647552 90.967232,145.012909 94.346565,135.962784   C101.542969,116.690300 115.221069,102.264542 131.916199,90.824791   C143.335999,82.999786 156.061996,77.826408 170.834641,76.093056   C179.148071,76.067062 186.595840,76.024338 194.042145,75.895844   C194.770432,75.883278 195.489609,75.342834 196.213013,75.047409  M245.486084,265.428284   C245.772705,265.423676 246.016235,265.318817 246.943481,265.076813   C252.681915,263.178680 252.775345,262.977295 250.249954,257.000153   C249.093079,255.322586 247.936203,253.645035 246.660782,251.795578   C244.063766,253.566284 242.130249,255.120285 239.986633,256.288879   C237.039276,257.895660 238.333786,259.970337 238.804291,262.214722   C239.334839,264.745453 240.251770,266.220123 243.756577,265.541321   C244.203278,265.467041 244.649963,265.392761 245.486084,265.428284  M136.596512,265.587555   C137.678177,264.637390 139.163544,263.862335 139.681793,262.667755   C139.967621,262.008911 138.853851,260.367676 137.975723,259.659668   C136.307648,258.314758 134.286484,257.418152 132.537430,256.160858   C129.916901,254.277100 128.644196,255.207550 127.700531,258.677521   C127.780319,260.803680 127.860115,262.929840 127.266357,265.463562   C126.884178,268.072510 126.501991,270.681488 126.073166,273.608826   C125.162140,274.209625 123.020218,274.930725 122.211227,276.390533   C121.639442,277.422272 122.818092,280.812042 123.309540,280.832062   C128.687561,281.050720 134.084122,280.813019 139.475647,280.699341   C139.686111,276.995331 139.922729,273.292450 140.080246,269.586212   C140.105301,268.996613 139.774689,268.391907 139.923019,268.925415   C135.399872,267.465851 131.670013,266.262268 128.609238,264.508392   C131.030350,264.809326 133.451477,265.110260 136.596512,265.587555  M283.780518,181.715210   C283.501648,184.102448 283.222778,186.489685 282.825073,189.894241   C286.628632,188.403336 289.730438,187.481537 292.485077,185.939514   C293.382446,185.437195 293.373962,183.316620 293.798828,181.200668   C292.789337,179.057281 293.268463,175.240540 289.322235,176.180099   C286.999908,176.733063 283.144287,176.504486 283.780518,181.715210  M169.095016,81.889008   C165.483871,82.928940 161.872742,83.968872 157.660934,85.512375   C155.745422,85.940849 153.745407,86.145233 151.926910,86.830978   C117.397552,99.851776 92.544479,135.337219 92.020027,172.122726   C91.978996,175.000931 92.392288,176.931747 95.278801,178.544922   C99.907150,181.131546 100.622765,184.414352 98.468941,188.802979   C87.377769,183.773041 77.556587,189.906631 77.083565,202.580994   C75.513466,207.531693 73.201515,212.395859 72.610672,217.460800   C72.147491,221.431305 76.136154,223.653488 79.696030,223.453156   C81.871750,223.330704 84.144424,220.980499 85.920601,219.183197   C86.994972,218.096039 87.203056,216.152802 87.585129,215.155838   C86.756447,212.353775 86.080093,209.602463 85.097771,206.965103   C84.682800,205.850998 83.623634,204.976837 83.559044,203.805618   C84.972458,202.390305 86.488075,201.061493 87.775902,199.539886   C89.827171,197.116226 91.698021,194.481873 95.039955,197.669540   C95.398575,199.450943 95.605431,201.279114 96.137856,203.006958   C112.208893,255.160263 170.370438,283.092224 220.977509,262.764038   C238.321365,255.797226 252.904541,245.049484 263.735352,228.676880   C267.005524,222.787247 270.440063,216.980408 273.468994,210.969208   C274.769226,208.388779 275.227051,205.383850 276.681244,202.071136   C277.710083,197.694916 278.738953,193.318710 279.974976,188.120941   C279.980438,179.329666 280.863953,170.434555 279.838654,161.765198   C275.516815,125.221893 246.400284,92.214592 211.330566,83.680962   C197.653229,79.982559 183.871323,78.792427 169.095016,81.889008  M71.754074,205.826141   C72.980896,202.591827 74.093903,199.308746 75.455528,196.132217   C79.820274,185.949707 85.906624,182.790894 96.059273,185.267929   C96.241287,185.312317 96.530128,184.918793 97.289078,184.318008   C96.103523,183.021301 95.179840,181.337723 93.761589,180.580795   C88.657265,177.856583 84.040756,179.891586 79.891533,182.906876   C75.747284,185.918564 71.888374,189.322876 67.215698,192.813812   C58.929604,197.366791 50.320419,201.428665 42.446754,206.608566   C34.301311,211.967255 30.542952,219.951340 31.958359,229.155487   C40.022396,224.583221 48.054348,220.110550 56.002396,215.493439   C61.120350,212.520355 66.115044,209.335052 71.754074,205.826141  M60.648254,217.946777   C62.205372,219.679550 63.866886,221.330322 65.302750,223.158340   C74.984032,235.483612 87.366280,242.701691 103.246887,243.275711   C107.224548,243.419479 111.211830,243.297226 116.698074,243.297226   C104.103943,229.925598 96.355461,215.643433 90.847244,199.626831   C89.366127,203.080963 87.062492,207.884079 88.497787,209.652328   C92.269699,214.299255 90.126694,217.440811 87.985596,221.228516   C85.521385,225.587814 81.487236,227.185425 76.546524,225.534149   C71.870667,223.971405 69.346603,219.786774 70.211678,215.026596   C70.424667,213.854584 70.646912,212.684265 71.128113,210.099213   C66.781296,213.017838 63.574078,215.171295 60.648254,217.946777  M296.665680,180.957443   C300.635254,180.202850 304.018829,180.395554 307.272552,183.736694   C309.617371,186.144531 311.582428,184.277374 311.620880,180.942505   C315.555267,184.390137 317.249054,183.834091 318.426636,178.917755   C320.069336,172.059326 313.614960,165.588257 306.850555,167.879166   C302.257874,169.434555 298.103485,172.284225 293.622772,174.623123   C294.537506,176.905472 295.273315,178.741333 296.665680,180.957443  M251.085327,281.798767   C251.580429,281.749542 252.186050,281.866272 252.551712,281.622711   C254.237228,280.500092 257.258636,279.232239 257.222443,278.098846   C257.131805,275.260254 254.988953,273.447784 251.666931,274.029968   C250.972137,274.151733 250.226807,273.985107 250.243790,273.985901   C251.307281,271.396118 252.359344,268.834076 253.606674,265.796600   C247.962616,266.721283 243.610229,267.434326 239.220520,268.153503   C236.776169,282.779541 237.310837,281.547485 249.703659,281.894165   C249.869125,281.898804 250.035141,281.883484 251.085327,281.798767  z"/>
<path fill="#CF655B" opacity="1.000000" stroke="none" d=" M195.918549,74.720062   C195.489609,75.342834 194.770432,75.883278 194.042145,75.895844   C186.595840,76.024338 179.148071,76.067062 171.230194,76.085236   C178.845444,72.427872 187.288818,74.227867 195.918549,74.720062  z"/>
<path fill="#E9944D" opacity="1.000000" stroke="none" d=" M276.067627,202.571808   C275.227051,205.383850 274.769226,208.388779 273.468994,210.969208   C270.440063,216.980408 267.005524,222.787247 263.118164,228.912811   C261.205627,230.131516 259.554688,230.866806 258.671326,232.136230   C251.693771,242.163147 241.703613,248.934555 231.239700,253.983551   C209.884521,264.287811 187.210632,267.619812 163.858582,260.970795   C131.747635,251.827881 109.823662,231.724060 98.681129,200.057800   C98.232101,198.781693 96.510101,197.953506 95.381203,196.916626   C91.698021,194.481873 89.827171,197.116226 87.775902,199.539886   C86.488075,201.061493 84.972458,202.390305 82.901863,203.778809   C80.653198,203.140396 79.061707,202.528824 77.470222,201.917236   C77.556587,189.906631 87.377769,183.773041 98.468941,188.802979   C100.622765,184.414352 99.907150,181.131546 95.278801,178.544922   C92.392288,176.931747 91.978996,175.000931 92.020027,172.122726   C92.544479,135.337219 117.397552,99.851776 151.926910,86.830978   C153.745407,86.145233 155.745422,85.940849 158.369720,85.261543   C163.032959,84.318916 166.987427,83.627121 171.222565,82.941681   C171.690338,82.943283 171.877441,82.938522 172.342346,82.910011   C173.101334,82.622116 173.582535,82.357964 174.528229,82.092117   C187.525528,81.384995 199.858856,82.626823 212.351685,85.974197   C235.596603,93.519981 253.358490,107.461761 265.709900,128.133118   C276.547394,146.270767 280.253876,166.055023 278.636505,187.272430   C277.644592,192.583740 276.856110,197.577774 276.067627,202.571808  M140.567505,241.940460   C151.235245,249.138077 162.898148,253.648514 175.689972,255.384308   C207.362549,259.682129 239.690247,244.648270 255.661804,216.984100   C273.149933,186.693054 272.053284,156.432785 252.188980,127.601532   C233.861450,101.000748 200.389389,88.157700 169.073517,95.631477   C135.868225,103.556175 114.345093,124.592918 107.196358,157.850571   C99.801392,192.253693 111.914085,220.348785 140.567505,241.940460  z"/>
<path fill="#D57D39" opacity="1.000000" stroke="none" d=" M95.210579,197.293091   C96.510101,197.953506 98.232101,198.781693 98.681129,200.057800   C109.823662,231.724060 131.747635,251.827881 163.858582,260.970795   C187.210632,267.619812 209.884521,264.287811 231.239700,253.983551   C241.703613,248.934555 251.693771,242.163147 258.671326,232.136230   C259.554688,230.866806 261.205627,230.131516 262.858093,229.124908   C252.904541,245.049484 238.321365,255.797226 220.977509,262.764038   C170.370438,283.092224 112.208893,255.160263 96.137856,203.006958   C95.605431,201.279114 95.398575,199.450943 95.210579,197.293091  z"/>
<path fill="#DD2E18" opacity="1.000000" stroke="none" d=" M60.507561,217.635773   C63.574078,215.171295 66.781296,213.017838 71.128113,210.099213   C70.646912,212.684265 70.424667,213.854584 70.211678,215.026596   C69.346603,219.786774 71.870667,223.971405 76.546524,225.534149   C81.487236,227.185425 85.521385,225.587814 87.985596,221.228516   C90.126694,217.440811 92.269699,214.299255 88.497787,209.652328   C87.062492,207.884079 89.366127,203.080963 90.847244,199.626831   C96.355461,215.643433 104.103943,229.925598 116.698074,243.297226   C111.211830,243.297226 107.224548,243.419479 103.246887,243.275711   C87.366280,242.701691 74.984032,235.483612 65.302750,223.158340   C63.866886,221.330322 62.205372,219.679550 60.507561,217.635773  z"/>
<path fill="#F94224" opacity="1.000000" stroke="none" d=" M71.164978,206.244858   C66.115044,209.335052 61.120350,212.520355 56.002396,215.493439   C48.054348,220.110550 40.022396,224.583221 31.958359,229.155487   C30.542952,219.951340 34.301311,211.967255 42.446754,206.608566   C50.320419,201.428665 58.929604,197.366791 67.715576,193.039673   C71.852997,196.988785 71.974487,201.511032 71.164978,206.244858  z"/>
<path fill="#3B97EC" opacity="1.000000" stroke="none" d=" M296.337402,180.767319   C295.273315,178.741333 294.537506,176.905472 293.622772,174.623123   C298.103485,172.284225 302.257874,169.434555 306.850555,167.879166   C313.614960,165.588257 320.069336,172.059326 318.426636,178.917755   C317.249054,183.834091 315.555267,184.390137 311.620880,180.942505   C311.582428,184.277374 309.617371,186.144531 307.272552,183.736694   C304.018829,180.395554 300.635254,180.202850 296.337402,180.767319  z"/>
<path fill="#E9B892" opacity="1.000000" stroke="none" d=" M278.839966,186.955170   C280.253876,166.055023 276.547394,146.270767 265.709900,128.133118   C253.358490,107.461761 235.596603,93.519981 212.350250,85.671486   C211.988815,84.868820 211.994400,84.462852 212.000000,84.056885   C246.400284,92.214592 275.516815,125.221893 279.838654,161.765198   C280.863953,170.434555 279.980438,179.329666 279.704651,188.310181   C279.236206,187.984680 279.038086,187.469925 278.839966,186.955170  z"/>
<path fill="#2E8EEA" opacity="1.000000" stroke="none" d=" M127.940147,265.058716   C131.670013,266.262268 135.399872,267.465851 139.923019,268.925415   C139.774689,268.391907 140.105301,268.996613 140.080246,269.586212   C139.922729,273.292450 139.686111,276.995331 139.475647,280.699341   C134.084122,280.813019 128.687561,281.050720 123.309540,280.832062   C122.818092,280.812042 121.639442,277.422272 122.211227,276.390533   C123.020218,274.930725 125.162140,274.209625 126.073166,273.608826   C126.501991,270.681488 126.884178,268.072510 127.626709,265.231018   C127.987061,264.998444 127.940147,265.058716 127.940147,265.058716  z"/>
<path fill="#2E8DE8" opacity="1.000000" stroke="none" d=" M250.643112,281.838135   C250.035141,281.883484 249.869125,281.898804 249.703659,281.894165   C237.310837,281.547485 236.776169,282.779541 239.220520,268.153503   C243.610229,267.434326 247.962616,266.721283 253.606674,265.796600   C252.359344,268.834076 251.307281,271.396118 250.243790,273.985901   C250.226807,273.985107 250.972137,274.151733 251.666931,274.029968   C254.988953,273.447784 257.131805,275.260254 257.222443,278.098846   C257.258636,279.232239 254.237228,280.500092 252.551712,281.622711   C252.186050,281.866272 251.580429,281.749542 250.643112,281.838135  z"/>
<path fill="#3493ED" opacity="1.000000" stroke="none" d=" M77.276894,202.249115   C79.061707,202.528824 80.653198,203.140396 82.550980,203.872803   C83.623634,204.976837 84.682800,205.850998 85.097771,206.965103   C86.080093,209.602463 86.756447,212.353775 87.585129,215.155838   C87.203056,216.152802 86.994972,218.096039 85.920601,219.183197   C84.144424,220.980499 81.871750,223.330704 79.696030,223.453156   C76.136154,223.653488 72.147491,221.431305 72.610672,217.460800   C73.201515,212.395859 75.513466,207.531693 77.276894,202.249115  z"/>
<path fill="#D92C17" opacity="1.000000" stroke="none" d=" M71.459526,206.035492   C71.974487,201.511032 71.852997,196.988785 68.059921,192.910294   C71.888374,189.322876 75.747284,185.918564 79.891533,182.906876   C84.040756,179.891586 88.657265,177.856583 93.761589,180.580795   C95.179840,181.337723 96.103523,183.021301 97.289078,184.318008   C96.530128,184.918793 96.241287,185.312317 96.059273,185.267929   C85.906624,182.790894 79.820274,185.949707 75.455528,196.132217   C74.093903,199.308746 72.980896,202.591827 71.459526,206.035492  z"/>
<path fill="#D27A38" opacity="1.000000" stroke="none" d=" M243.089127,265.382477   C240.251770,266.220123 239.334839,264.745453 238.804291,262.214722   C238.333786,259.970337 237.039276,257.895660 239.986633,256.288879   C242.130249,255.120285 244.063766,253.566284 246.660782,251.795578   C247.936203,253.645035 249.093079,255.322586 249.975800,257.529327   C247.497482,260.499817 245.293304,262.941162 243.089127,265.382477  z"/>
<path fill="#DDA57F" opacity="1.000000" stroke="none" d=" M211.665283,83.868927   C211.994400,84.462852 211.988815,84.868820 211.984665,85.577499   C199.858856,82.626823 187.525528,81.384995 174.244858,82.107094   C173.019516,82.393761 172.542038,82.663757 172.064560,82.933762   C171.877441,82.938522 171.690338,82.943283 171.082245,82.747467   C170.454895,82.292542 170.203812,82.095001 169.908020,81.954292   C183.871323,78.792427 197.653229,79.982559 211.665283,83.868927  z"/>
<path fill="#D17937" opacity="1.000000" stroke="none" d=" M293.779785,181.936188   C293.373962,183.316620 293.382446,185.437195 292.485077,185.939514   C289.730438,187.481537 286.628632,188.403336 282.825073,189.894241   C283.222778,186.489685 283.501648,184.102448 284.305542,181.429840   C287.813660,181.408386 290.796692,181.672287 293.779785,181.936188  z"/>
<path fill="#CE7636" opacity="1.000000" stroke="none" d=" M128.091949,258.035278   C128.644196,255.207550 129.916901,254.277100 132.537430,256.160858   C134.286484,257.418152 136.307648,258.314758 137.975723,259.659668   C138.853851,260.367676 139.967621,262.008911 139.681793,262.667755   C139.163544,263.862335 137.678177,264.637390 136.179138,265.193115   C134.229507,261.382568 132.442398,258.255493 128.091949,258.035278  z"/>
<path fill="#E7924C" opacity="1.000000" stroke="none" d=" M293.789307,181.568420   C290.796692,181.672287 287.813660,181.408386 284.438293,181.059845   C283.144287,176.504486 286.999908,176.733063 289.322235,176.180099   C293.268463,175.240540 292.789337,179.057281 293.789307,181.568420  z"/>
<path fill="#E7924C" opacity="1.000000" stroke="none" d=" M127.896240,258.356384   C132.442398,258.255493 134.229507,261.382568 135.817169,265.104919   C133.451477,265.110260 131.030350,264.809326 128.274689,264.783569   C127.940147,265.058716 127.987061,264.998444 127.963486,265.027222   C127.860115,262.929840 127.780319,260.803680 127.896240,258.356384  z"/>
<path fill="#E7924C" opacity="1.000000" stroke="none" d=" M243.422852,265.461914   C245.293304,262.941162 247.497482,260.499817 250.036133,257.873962   C252.775345,262.977295 252.681915,263.178680 246.385010,265.074524   C245.559753,265.084747 245.316467,265.166840 245.096664,265.318481   C244.649963,265.392761 244.203278,265.467041 243.422852,265.461914  z"/>
<path fill="#E1A376" opacity="1.000000" stroke="none" d=" M278.636536,187.272430   C279.038086,187.469925 279.236206,187.984680 279.601074,188.720978   C278.738953,193.318710 277.710083,197.694916 276.374451,202.321472   C276.856110,197.577774 277.644592,192.583740 278.636536,187.272430  z"/>
<path fill="#DB9B71" opacity="1.000000" stroke="none" d=" M169.501526,81.921646   C170.203812,82.095001 170.454895,82.292542 170.801575,82.741112   C166.987427,83.627121 163.032959,84.318916 158.670044,85.009750   C161.872742,83.968872 165.483871,82.928940 169.501526,81.921646  z"/>
<path fill="#D27A38" opacity="1.000000" stroke="none" d=" M245.291382,265.373383   C245.316467,265.166840 245.559753,265.084747 246.021606,265.093018   C246.016235,265.318817 245.772705,265.423676 245.291382,265.373383  z"/>
<path fill="#6E1509" opacity="1.000000" stroke="none" d=" M140.270004,241.740082   C111.914085,220.348785 99.801392,192.253693 107.196358,157.850571   C114.345093,124.592918 135.868225,103.556175 169.073517,95.631477   C200.389389,88.157700 233.861450,101.000748 252.188980,127.601532   C272.053284,156.432785 273.149933,186.693054 255.661804,216.984100   C239.690247,244.648270 207.362549,259.682129 175.689972,255.384308   C162.898148,253.648514 151.235245,249.138077 140.270004,241.740082  M262.474457,191.869781   C262.642151,191.595963 262.667542,191.309525 262.803070,190.378296   C262.831757,189.927582 262.860413,189.476883 263.210846,188.317139   C263.396393,186.522339 263.581970,184.727539 263.954620,182.222260   C263.948792,181.490128 263.942963,180.757996 264.122742,179.502182   C264.079773,179.322037 264.036774,179.141891 264.174713,178.149155   C264.149567,176.767975 264.124451,175.386795 264.317627,173.104385   C262.797272,140.441330 247.085266,116.815521 217.546371,103.470535   C193.692963,92.694122 169.704330,94.211975 146.243164,108.023666   C113.890961,127.778786 100.230469,165.932510 112.847412,201.297852   C125.341309,236.318268 160.710693,257.748199 197.975128,251.919662   C225.369934,247.634842 245.283508,232.557571 257.581268,206.805710   C257.739258,206.201431 257.897247,205.597137 258.250702,204.774231   C258.250702,204.774231 258.244080,204.481049 258.716614,203.959854   C258.903473,203.290756 259.090332,202.621643 259.439362,201.811325   C259.439362,201.811325 259.333954,201.623901 259.798462,201.095581   C259.953003,200.420227 260.107574,199.744888 260.598938,198.632233   C260.712067,198.097717 260.825195,197.563217 261.237091,196.562759   C261.246857,196.378525 261.256653,196.194290 261.591248,195.496506   C261.588074,194.902969 261.584869,194.309433 262.013184,193.260147   C262.060883,192.853134 262.108612,192.446106 262.083740,192.069397   C262.083740,192.069397 262.120789,192.138763 262.474457,191.869781  z"/>
<path fill="#DB9B71" opacity="1.000000" stroke="none" d=" M172.342346,82.910004   C172.542038,82.663757 173.019516,82.393761 173.780365,82.108795   C173.582535,82.357964 173.101334,82.622116 172.342346,82.910004  z"/>
<path fill="#FAC62B" opacity="1.000000" stroke="none" d=" M258.244080,204.481049   C258.244080,204.481049 258.250702,204.774231 257.917847,205.095917   C257.419189,206.014618 257.253387,206.611633 257.087555,207.208664   C245.283508,232.557571 225.369934,247.634842 197.975128,251.919662   C160.710693,257.748199 125.341309,236.318268 112.847412,201.297852   C100.230469,165.932510 113.890961,127.778786 146.817047,108.158569   C148.318924,108.244858 149.385468,108.480606 150.154572,108.105904   C167.871094,99.474075 186.202271,98.941475 204.606537,103.902481   C201.497635,105.704926 198.094940,106.896767 196.213928,109.286400   C194.808884,111.071373 195.368179,114.402588 195.052734,117.045265   C197.307022,117.108299 199.561707,117.161140 201.815140,117.246735   C202.110489,117.257950 202.399429,117.437065 202.691345,117.538414   C203.753143,119.656891 205.182953,121.697258 207.097397,122.381325   C207.927887,122.678062 209.756271,120.182068 211.131393,118.954559   C209.787140,117.611732 208.442886,116.268913 207.067078,114.632637   C207.068344,113.948204 207.101151,113.557220 207.513458,113.180801   C211.153671,112.490768 213.755264,111.272804 213.003113,107.139679   C214.198425,107.342857 215.035278,107.457588 215.799622,107.757256   C240.207794,117.326897 259.870087,142.524673 262.105042,169.505325   C262.232971,171.049881 263.410339,172.507523 264.099304,174.005615   C264.124451,175.386795 264.149567,176.767975 263.952637,178.659637   C263.553070,179.509277 263.621918,179.794540 263.937103,180.025864   C263.942963,180.757996 263.948792,181.490128 263.548950,182.722122   C263.058594,185.156708 262.973877,187.091446 262.889099,189.026169   C262.860413,189.476883 262.831757,189.927582 262.531677,190.848541   C262.104034,191.573441 262.057526,191.846756 262.120789,192.138763   C262.120789,192.138763 262.083740,192.069397 261.905640,192.282959   C261.678925,192.902985 261.630310,193.309433 261.581665,193.715897   C261.584869,194.309433 261.588074,194.902969 261.261353,195.815460   C260.856293,196.223892 260.706909,196.326447 260.719940,196.400345   C260.757965,196.615921 260.860870,196.820068 260.938324,197.028702   C260.825195,197.563217 260.712067,198.097717 260.155273,199.085724   C259.585693,200.234116 259.459839,200.929001 259.333954,201.623901   C259.333954,201.623901 259.439362,201.811325 259.082947,202.119720   C258.565704,203.112411 258.404877,203.796738 258.244080,204.481049  M161.077591,116.932556   C160.932465,117.391724 160.787354,117.850891 160.141525,118.311920   C160.071564,118.463440 160.001617,118.614967 159.685791,118.968178   C159.537613,119.141594 159.485306,119.340248 159.475800,119.676231   C159.475800,119.676231 159.570129,119.756775 159.035828,120.274490   C158.999115,123.368294 158.962402,126.462105 158.661911,129.544708   C158.661911,129.544708 158.636887,129.807541 158.671906,130.509201   C159.010254,131.086456 159.348602,131.663696 159.608765,132.268372   C159.608765,132.268372 159.576782,132.344788 159.690186,133.036316   C164.705200,141.511490 173.872147,143.949783 181.180801,138.752548   C188.310074,133.682877 189.534393,123.082458 183.775803,116.284561   C177.967880,109.428429 168.817413,109.070358 162.503555,115.514290   C162.503555,115.514290 162.541016,115.563805 162.023254,115.716057   C161.868317,116.027100 161.713379,116.338135 161.629425,116.836823   C161.629425,116.836823 161.817184,116.766098 161.077591,116.932556  M197.456665,179.373917   C197.770477,176.395355 198.313171,173.401016 198.110580,170.458008   C198.085022,170.087082 194.143936,169.934570 192.009933,169.775558   C190.197144,169.640488 188.362473,169.752869 186.557892,169.562439   C181.287018,169.006226 180.367706,169.790085 181.121216,175.013641   C181.369720,176.736252 182.339584,178.354797 183.201004,180.706314   C188.582581,185.764069 193.313675,185.528076 197.456665,179.373917  M159.995865,237.002457   C159.995865,237.002457 159.936508,237.066086 159.677826,237.772949   C165.025986,242.800461 171.612076,243.518723 177.356674,239.700912   C183.247437,235.785965 185.575958,227.776901 182.768661,221.086197   C179.966324,214.407318 173.114883,210.662277 166.183121,212.020447   C159.789291,213.273209 154.791840,219.167923 154.783066,225.977737   C154.777451,230.346710 154.913452,234.908676 159.995865,237.002457  M224.777481,194.257141   C222.635712,192.741531 220.493958,191.225922 218.396973,189.048904   C216.934937,188.296982 215.495239,186.947250 214.007156,186.891617   C205.329468,186.567154 198.817245,194.456238 199.793030,204.058975   C200.453873,210.562256 203.921310,215.259430 210.084808,217.485870   C215.318924,219.376587 220.296646,218.457779 224.324417,214.407867   C228.947617,209.759232 230.273239,204.145721 228.180069,197.951385   C227.764343,196.721115 226.131882,195.902023 224.777481,194.257141  M221.702393,172.598251   C228.026184,168.591705 229.498489,162.440567 225.905228,155.937073   C225.049332,154.387985 224.854889,152.473450 224.139038,149.966431   C219.240509,152.322388 213.991150,154.847061 208.962250,157.265717   C211.198090,164.698639 210.387955,173.370697 221.702393,172.598251  M166.110794,160.602814   C165.968018,159.934113 166.007034,158.805069 165.655045,158.666046   C160.695694,156.707367 155.683136,154.883377 150.983765,153.138229   C150.539627,156.040375 150.135818,157.651962 150.077194,159.276031   C149.955612,162.644699 149.389221,166.174500 150.170853,169.351379   C151.046570,172.910690 153.981827,175.233582 157.985580,175.029999   C162.214401,174.814941 164.580307,172.023087 165.509155,168.219467   C166.043762,166.030273 165.739059,163.636139 166.110794,160.602814  M178.008728,188.903671   C174.970520,186.883545 172.171448,183.968323 168.831909,183.076126   C164.901703,182.026093 163.114792,185.031586 164.687714,188.826859   C165.044846,189.688538 165.460159,190.526108 165.861038,191.401733   C163.514313,193.298676 158.819351,193.551971 161.902252,198.258377   C165.121994,203.173721 167.302292,198.665329 168.580673,197.933273   C171.820923,198.933350 175.288116,200.729996 175.875549,200.047607   C177.591919,198.053864 178.290558,195.110748 179.096268,192.451324   C179.335190,191.662643 178.608200,190.581314 178.008728,188.903671  M129.978470,193.285431   C127.869675,195.295975 125.181702,196.973328 123.788330,199.395462   C121.717430,202.995331 123.645905,205.457687 127.815430,205.347809   C128.757950,205.322968 129.698563,205.226486 130.897690,205.145630   C131.241165,208.523041 131.138367,212.304611 136.093994,211.005569   C141.197815,209.667679 138.552994,206.281937 138.443176,203.700272   C140.107407,201.712341 142.637543,198.168091 142.023087,197.495117   C140.017502,195.298660 136.934967,193.999069 134.112640,192.685501   C133.221588,192.270798 131.846115,192.896866 129.978470,193.285431  M237.199982,187.887253   C237.795288,193.474457 237.836304,193.496628 245.635590,192.369507   C246.854218,194.917664 246.965424,199.213348 251.780533,196.689026   C256.376190,194.279724 253.523254,191.623505 252.528030,189.131332   C253.796722,186.757751 255.557449,183.757477 254.730301,181.925964   C253.091248,178.296738 248.760925,177.716858 245.671936,179.397461   C242.458267,181.145935 240.109665,184.484390 237.199982,187.887253  M248.858810,154.504532   C246.638397,157.429962 247.041840,163.446976 250.391663,165.795120   C251.918884,166.865662 254.819427,165.977051 257.190063,165.977051   C255.584717,161.231918 254.337906,157.546570 252.950302,153.445068   C252.002960,153.652679 250.781189,153.920425 248.858810,154.504532  M195.209442,226.925003   C196.358871,225.583282 198.723373,223.842026 198.437393,222.972290   C197.448868,219.966049 195.822952,217.019089 193.772705,214.619431   C193.269119,214.030014 190.233154,215.604233 188.006653,216.293594   C190.470779,220.440216 192.460144,223.787903 195.209442,226.925003  M218.239105,227.812073   C216.320923,228.680237 214.164047,229.234650 212.530670,230.477188   C208.167572,233.796234 208.347214,235.428619 212.836868,238.795685   C215.825134,236.513885 218.768082,234.266678 222.036774,231.770737   C221.004776,230.528519 219.981430,229.296707 218.239105,227.812073  M233.987137,125.525589   C231.121552,122.544632 228.570618,122.964142 224.573456,126.577454   C220.918716,129.881226 222.646194,132.158646 225.288452,134.313293   C228.359985,132.334564 231.268158,130.569595 234.018158,128.585434   C234.491119,128.244202 234.291168,126.970306 233.987137,125.525589  M207.159058,141.687500   C206.340881,139.885681 205.522705,138.083862 204.704529,136.282028   C201.737137,138.133942 198.471237,139.675507 196.004684,142.048111   C195.358963,142.669220 197.196014,145.871460 197.857895,147.787155   C201.377609,145.420593 203.930756,143.703918 207.159058,141.687500  M235.565399,219.801041   C236.134552,220.042236 236.991974,220.653229 237.229065,220.468430   C240.156845,218.186172 242.994125,215.787811 245.802216,213.462906   C244.364166,209.497864 241.867844,207.992569 238.310562,210.900375   C235.781525,212.967667 231.035782,214.566422 235.565399,219.801041  M138.543442,140.971558   C142.924072,134.632874 142.698929,133.479950 136.912766,131.461761   C134.722260,134.567368 132.576218,137.609924 130.400391,140.694717   C132.721619,143.327393 135.085434,145.152740 138.543442,140.971558  M123.278152,164.793716   C123.086349,166.574936 122.618416,168.377594 122.754631,170.133362   C123.159737,175.355301 124.359764,176.040466 129.688690,174.504211   C129.325073,171.001358 128.961456,167.498489 128.545181,163.488373   C126.932228,163.743484 125.374290,163.989899 123.278152,164.793716  M144.595566,229.147079   C145.942795,227.935425 148.638367,226.129608 148.410324,225.612137   C147.252106,222.983795 145.599731,220.409073 143.520615,218.453217   C142.916397,217.884811 140.332260,219.421097 138.620438,220.004623   C140.715851,223.438309 142.336594,226.094147 144.595566,229.147079  z"/>
<path fill="#F1A02A" opacity="1.000000" stroke="none" d=" M204.966141,103.806198   C186.202271,98.941475 167.871094,99.474075 150.154572,108.105904   C149.385468,108.480606 148.318924,108.244858 147.147614,108.056091   C169.704330,94.211975 193.692963,92.694122 217.546371,103.470535   C247.085266,116.815521 262.797272,140.441330 264.208466,173.554993   C263.410339,172.507523 262.232971,171.049881 262.105042,169.505325   C259.870087,142.524673 240.207794,117.326897 215.799622,107.757256   C215.035278,107.457588 214.198425,107.342857 213.086746,107.051155   C212.778107,106.960403 212.990860,107.068909 212.802750,106.853394   C212.287094,106.443329 211.959564,106.248772 211.321259,105.905167   C208.995697,105.106148 206.980927,104.456177 204.966141,103.806198  z"/>
<path fill="#F1A02A" opacity="1.000000" stroke="none" d=" M263.049988,188.671661   C262.973877,187.091446 263.058594,185.156708 263.455444,183.077362   C263.581970,184.727539 263.396393,186.522339 263.049988,188.671661  z"/>
<path fill="#F1A02A" opacity="1.000000" stroke="none" d=" M259.566223,201.359741   C259.459839,200.929001 259.585693,200.234116 259.986877,199.304382   C260.107574,199.744888 259.953003,200.420227 259.566223,201.359741  z"/>
<path fill="#F1A02A" opacity="1.000000" stroke="none" d=" M258.480347,204.220459   C258.404877,203.796738 258.565704,203.112411 259.001831,202.190323   C259.090332,202.621643 258.903473,203.290756 258.480347,204.220459  z"/>
<path fill="#F1A02A" opacity="1.000000" stroke="none" d=" M257.334412,207.007187   C257.253387,206.611633 257.419189,206.014618 257.820129,205.205215   C257.897247,205.597137 257.739258,206.201431 257.334412,207.007187  z"/>
<path fill="#F1A02A" opacity="1.000000" stroke="none" d=" M261.087708,196.795731   C260.860870,196.820068 260.757965,196.615921 260.719940,196.400345   C260.706909,196.326447 260.856293,196.223892 261.098969,196.072235   C261.256653,196.194290 261.246857,196.378525 261.087708,196.795731  z"/>
<path fill="#F1A02A" opacity="1.000000" stroke="none" d=" M261.797424,193.488022   C261.630310,193.309433 261.678925,192.902985 261.941925,192.267807   C262.108612,192.446106 262.060883,192.853134 261.797424,193.488022  z"/>
<path fill="#F1A02A" opacity="1.000000" stroke="none" d=" M262.297607,192.004272   C262.057526,191.846756 262.104034,191.573441 262.405457,191.164612   C262.667542,191.309525 262.642151,191.595963 262.297607,192.004272  z"/>
<path fill="#F1A02A" opacity="1.000000" stroke="none" d=" M264.029907,179.764023   C263.621918,179.794540 263.553070,179.509277 263.862183,179.065918   C264.036774,179.141891 264.079773,179.322037 264.029907,179.764023  z"/>
<path fill="#FA4325" opacity="1.000000" stroke="none" d=" M218.352203,189.710297   C220.493958,191.225922 222.635712,192.741531 224.910492,194.971786   C228.571884,203.422562 227.056290,210.530045 221.032501,214.496277   C215.958664,217.837036 209.533859,216.480148 205.176666,211.038025   C209.416321,209.576614 207.291199,208.338409 205.290222,206.640518   C205.081070,203.741501 204.643524,201.254486 204.935501,198.856293   C205.835510,191.463974 211.143997,187.951492 218.352203,189.710297  z"/>
<path fill="#6B120A" opacity="1.000000" stroke="none" d=" M221.328156,172.717743   C210.387955,173.370697 211.198090,164.698639 208.962250,157.265717   C213.991150,154.847061 219.240509,152.322388 224.139038,149.966431   C224.854889,152.473450 225.049332,154.387985 225.905228,155.937073   C229.498489,162.440567 228.026184,168.591705 221.328156,172.717743  M217.886398,164.918564   C218.394135,163.952026 219.389297,162.933884 219.293732,162.031204   C219.155365,160.724487 218.406784,159.350891 217.542297,158.321899   C217.228165,157.948013 215.280930,158.194077 215.040344,158.656998   C214.416428,159.857498 213.818527,161.491409 214.175476,162.656586   C214.494095,163.696625 216.103149,164.341309 217.886398,164.918564  z"/>
<path fill="#6C130A" opacity="1.000000" stroke="none" d=" M165.961472,160.968536   C165.739059,163.636139 166.043762,166.030273 165.509155,168.219467   C164.580307,172.023087 162.214401,174.814941 157.985580,175.029999   C153.981827,175.233582 151.046570,172.910690 150.170853,169.351379   C149.389221,166.174500 149.955612,162.644699 150.077194,159.276031   C150.135818,157.651962 150.539627,156.040375 150.983765,153.138229   C155.683136,154.883377 160.695694,156.707367 165.655045,158.666046   C166.007034,158.805069 165.968018,159.934113 165.961472,160.968536  M157.510071,161.259094   C157.914749,163.152573 158.279999,165.057938 158.837341,166.905350   C158.866028,167.000366 161.186737,166.816422 161.330475,166.389038   C161.817062,164.942413 162.301804,163.130569 161.795273,161.850967   C161.490494,161.081039 159.344238,161.040070 157.510071,161.259094  z"/>
<path fill="#84210E" opacity="1.000000" stroke="none" d=" M159.931335,237.061691   C154.913452,234.908676 154.777451,230.346710 154.783066,225.977737   C154.791840,219.167923 159.789291,213.273209 166.183121,212.020447   C173.114883,210.662277 179.966324,214.407318 182.768661,221.086197   C185.575958,227.776901 183.247437,235.785965 177.356674,239.700912   C171.612076,243.518723 165.025986,242.800461 160.179657,237.424164   C165.653214,240.137878 170.794296,241.411346 176.097733,238.021652   C180.441483,235.245316 182.111191,231.197418 181.335052,225.923676   C181.412003,224.819901 181.219101,223.889313 181.012573,222.980804   C180.998947,223.002914 181.050415,222.996033 181.086975,222.651794   C180.425949,221.192032 179.728378,220.076523 179.015076,218.980423   C178.999374,218.999832 179.045868,218.981628 178.999237,218.710907   C178.646576,218.277664 178.340546,218.115128 178.017639,217.976196   C178.000778,217.999802 178.047531,217.965332 178.006378,217.692474   C177.651627,217.265213 177.338013,217.110809 177.012543,216.978516   C177.000656,217.000610 177.035965,216.964706 176.900940,216.636597   C173.575668,213.934525 170.278473,212.276245 166.014954,214.886383   C156.930725,220.590729 160.432846,229.347061 159.931335,237.061691  z"/>
<path fill="#7F1B0C" opacity="1.000000" stroke="none" d=" M204.837662,211.075958   C209.533859,216.480148 215.958664,217.837036 221.032501,214.496277   C227.056290,210.530045 228.571884,203.422562 225.052002,195.289871   C226.131882,195.902023 227.764343,196.721115 228.180069,197.951385   C230.273239,204.145721 228.947617,209.759232 224.324417,214.407867   C220.296646,218.457779 215.318924,219.376587 210.084808,217.485870   C203.921310,215.259430 200.453873,210.562256 199.793030,204.058975   C198.817245,194.456238 205.329468,186.567154 214.007156,186.891617   C215.495239,186.947250 216.934937,188.296982 218.374588,189.379608   C211.143997,187.951492 205.835510,191.463974 204.935501,198.856293   C204.643524,201.254486 205.081070,203.741501 204.964828,206.402832   C204.091919,203.107544 203.439102,199.597305 202.789322,196.103485   C200.568527,200.831833 200.535400,205.529663 204.078125,210.261810   C204.367386,210.783951 204.624146,210.981155 204.929779,211.048645   C204.898544,211.023270 204.837662,211.075958 204.837662,211.075958  z"/>
<path fill="#7D2111" opacity="1.000000" stroke="none" d=" M162.506500,115.452263   C168.817413,109.070358 177.967880,109.428429 183.775803,116.284561   C189.534393,123.082458 188.310074,133.682877 181.180801,138.752548   C173.872147,143.949783 164.705200,141.511490 160.041748,132.622818   C160.938889,132.152908 161.484467,132.096481 162.043930,132.391205   C165.190384,140.222412 175.137283,140.579346 179.921524,137.207367   C185.222916,133.470901 187.104187,124.774918 183.468033,119.900818   C178.253464,112.910950 171.177490,111.812698 164.901245,116.898224   C163.864929,116.298714 163.185715,115.875488 162.506500,115.452263  z"/>
<path fill="#690D07" opacity="1.000000" stroke="none" d=" M182.979614,180.020935   C182.339584,178.354797 181.369720,176.736252 181.121216,175.013641   C180.367706,169.790085 181.287018,169.006226 186.557892,169.562439   C188.362473,169.752869 190.197144,169.640488 192.009933,169.775558   C194.143936,169.934570 198.085022,170.087082 198.110580,170.458008   C198.313171,173.401016 197.770477,176.395355 196.885010,179.657745   C196.063141,179.915436 195.812897,179.889282 195.608063,179.501007   C192.526489,175.172852 188.810349,177.080002 184.922775,178.225952   C184.100677,178.915787 183.540161,179.468369 182.979614,180.020935  z"/>
<path fill="#7C2B1A" opacity="1.000000" stroke="none" d=" M178.166275,189.268890   C178.608200,190.581314 179.335190,191.662643 179.096268,192.451324   C178.290558,195.110748 177.591919,198.053864 175.875549,200.047607   C175.288116,200.729996 171.820923,198.933350 168.580673,197.933273   C167.302292,198.665329 165.121994,203.173721 161.902252,198.258377   C158.819351,193.551971 163.514313,193.298676 165.861038,191.401733   C165.460159,190.526108 165.044846,189.688538 164.687714,188.826859   C163.114792,185.031586 164.901703,182.026093 168.831909,183.076126   C172.171448,183.968323 174.970520,186.883545 178.166275,189.268890  M169.137253,185.076736   C168.382965,186.073853 166.893448,187.157181 166.998581,188.053497   C167.520935,192.507111 169.930801,195.838455 174.025162,197.847214   C178.938217,194.029266 177.026642,188.033875 169.137253,185.076736  z"/>
<path fill="#80301C" opacity="1.000000" stroke="none" d=" M130.335419,193.166016   C131.846115,192.896866 133.221588,192.270798 134.112640,192.685501   C136.934967,193.999069 140.017502,195.298660 142.023087,197.495117   C142.637543,198.168091 140.107407,201.712341 138.443176,203.700272   C138.552994,206.281937 141.197815,209.667679 136.093994,211.005569   C131.138367,212.304611 131.241165,208.523041 130.897690,205.145630   C129.698563,205.226486 128.757950,205.322968 127.815430,205.347809   C123.645905,205.457687 121.717430,202.995331 123.788330,199.395462   C125.181702,196.973328 127.869675,195.295975 130.335419,193.166016  M133.120544,204.230118   C133.954941,208.534164 133.954941,208.534164 137.098160,207.874557   C133.638290,203.412308 135.820068,200.791138 140.493576,199.196136   C137.702423,194.382721 133.306717,195.323730 129.841034,195.916565   C127.078896,196.389053 125.012878,199.105179 125.670013,202.588501   C128.243393,202.934250 130.454147,203.231277 133.120544,204.230118  z"/>
<path fill="#7C2B17" opacity="1.000000" stroke="none" d=" M237.291382,187.507431   C240.109665,184.484390 242.458267,181.145935 245.671936,179.397461   C248.760925,177.716858 253.091248,178.296738 254.730301,181.925964   C255.557449,183.757477 253.796722,186.757751 252.528030,189.131332   C253.523254,191.623505 256.376190,194.279724 251.780533,196.689026   C246.965424,199.213348 246.854218,194.917664 245.635590,192.369507   C237.836304,193.496628 237.795288,193.474457 237.291382,187.507431  M242.551254,182.951782   C240.388657,185.080093 238.431946,187.270279 240.219284,190.924255   C243.536743,190.298279 247.893555,187.221466 248.597641,193.817047   C248.614029,193.970551 250.392044,193.936005 252.054947,194.028458   C247.222900,189.289108 250.667145,186.368393 254.588608,183.548264   C254.223419,183.014771 253.858231,182.481277 253.493042,181.947784   C250.043365,182.129639 246.593674,182.311493 242.551254,182.951782  z"/>
<path fill="#7B2B15" opacity="1.000000" stroke="none" d=" M204.606537,103.902481   C206.980927,104.456177 208.995697,105.106148 211.480316,106.168831   C212.297058,106.743996 212.643951,106.906456 212.990860,107.068909   C212.990860,107.068909 212.778107,106.960403 212.694489,107.048927   C213.755264,111.272804 211.153671,112.490768 207.472504,112.815369   C208.325592,111.479561 209.599075,110.523766 211.016342,109.460060   C208.851028,105.261818 205.554108,105.363480 202.119965,106.826630   C198.344421,108.435242 195.982117,111.091675 196.784714,115.436882   C199.544159,115.436882 202.119461,114.835312 204.138596,115.636093   C205.628860,116.227112 206.393600,118.647476 207.481598,120.252769   C207.915421,119.945557 208.349243,119.638336 208.783066,119.331116   C208.221588,117.862778 207.660110,116.394440 207.098633,114.926094   C208.442886,116.268913 209.787140,117.611732 211.131393,118.954559   C209.756271,120.182068 207.927887,122.678062 207.097397,122.381325   C205.182953,121.697258 203.753143,119.656891 202.691345,117.538414   C202.399429,117.437065 202.110489,117.257950 201.815140,117.246735   C199.561707,117.161140 197.307022,117.108299 195.052734,117.045265   C195.368179,114.402588 194.808884,111.071373 196.213928,109.286400   C198.094940,106.896767 201.497635,105.704926 204.606537,103.902481  z"/>
<path fill="#F2CBA2" opacity="1.000000" stroke="none" d=" M207.067078,114.632637   C207.660110,116.394440 208.221588,117.862778 208.783066,119.331116   C208.349243,119.638336 207.915421,119.945557 207.481598,120.252769   C206.393600,118.647476 205.628860,116.227112 204.138596,115.636093   C202.119461,114.835312 199.544159,115.436882 196.784714,115.436882   C195.982117,111.091675 198.344421,108.435242 202.119965,106.826630   C205.554108,105.363480 208.851028,105.261818 211.016342,109.460060   C209.599075,110.523766 208.325592,111.479561 207.093033,112.800804   C207.101151,113.557220 207.068344,113.948204 207.067078,114.632637  z"/>
<path fill="#6B2913" opacity="1.000000" stroke="none" d=" M249.209106,154.346344   C250.781189,153.920425 252.002960,153.652679 252.950302,153.445068   C254.337906,157.546570 255.584717,161.231918 257.190063,165.977051   C254.819427,165.977051 251.918884,166.865662 250.391663,165.795120   C247.041840,163.446976 246.638397,157.429962 249.209106,154.346344  z"/>
<path fill="#6F3015" opacity="1.000000" stroke="none" d=" M194.829483,227.030304   C192.460144,223.787903 190.470779,220.440216 188.006653,216.293594   C190.233154,215.604233 193.269119,214.030014 193.772705,214.619431   C195.822952,217.019089 197.448868,219.966049 198.437393,222.972290   C198.723373,223.842026 196.358871,225.583282 194.829483,227.030304  z"/>
<path fill="#6B2712" opacity="1.000000" stroke="none" d=" M218.598602,227.938477   C219.981430,229.296707 221.004776,230.528519 222.036774,231.770737   C218.768082,234.266678 215.825134,236.513885 212.836868,238.795685   C208.347214,235.428619 208.167572,233.796234 212.530670,230.477188   C214.164047,229.234650 216.320923,228.680237 218.598602,227.938477  z"/>
<path fill="#6B3418" opacity="1.000000" stroke="none" d=" M234.194580,125.826408   C234.291168,126.970306 234.491119,128.244202 234.018158,128.585434   C231.268158,130.569595 228.359985,132.334564 225.288452,134.313293   C222.646194,132.158646 220.918716,129.881226 224.573456,126.577454   C228.570618,122.964142 231.121552,122.544632 234.194580,125.826408  z"/>
<path fill="#6B3216" opacity="1.000000" stroke="none" d=" M206.821472,141.837372   C203.930756,143.703918 201.377609,145.420593 197.857895,147.787155   C197.196014,145.871460 195.358963,142.669220 196.004684,142.048111   C198.471237,139.675507 201.737137,138.133942 204.704529,136.282028   C205.522705,138.083862 206.340881,139.885681 206.821472,141.837372  z"/>
<path fill="#6C2D14" opacity="1.000000" stroke="none" d=" M235.349976,219.544525   C231.035782,214.566422 235.781525,212.967667 238.310562,210.900375   C241.867844,207.992569 244.364166,209.497864 245.802216,213.462906   C242.994125,215.787811 240.156845,218.186172 237.229065,220.468430   C236.991974,220.653229 236.134552,220.042236 235.349976,219.544525  z"/>
<path fill="#6F3015" opacity="1.000000" stroke="none" d=" M138.294312,141.225677   C135.085434,145.152740 132.721619,143.327393 130.400391,140.694717   C132.576218,137.609924 134.722260,134.567368 136.912766,131.461761   C142.698929,133.479950 142.924072,134.632874 138.294312,141.225677  z"/>
<path fill="#6A2614" opacity="1.000000" stroke="none" d=" M123.547256,164.515015   C125.374290,163.989899 126.932228,163.743484 128.545181,163.488373   C128.961456,167.498489 129.325073,171.001358 129.688354,174.504852   C124.359764,176.040466 123.159737,175.355301 122.754631,170.133362   C122.618416,168.377594 123.086349,166.574936 123.547256,164.515015  z"/>
<path fill="#703119" opacity="1.000000" stroke="none" d=" M144.276443,228.948532   C142.336594,226.094147 140.715851,223.438309 138.620438,220.004623   C140.332260,219.421097 142.916397,217.884811 143.520615,218.453217   C145.599731,220.409073 147.252106,222.983795 148.410324,225.612137   C148.638367,226.129608 145.942795,227.935425 144.276443,228.948532  z"/>
<path fill="#8A1B0B" opacity="1.000000" stroke="none" d=" M162.505035,115.483276   C163.185715,115.875488 163.864929,116.298714 164.780090,117.245346   C162.191727,122.143181 161.545227,126.973274 162.030045,132.040070   C161.484467,132.096481 160.938889,132.152908 159.985046,132.277054   C159.576782,132.344788 159.608765,132.268372 159.664093,131.903687   C159.358566,130.961838 158.997726,130.384689 158.636887,129.807541   C158.636887,129.807541 158.661911,129.544708 158.802460,129.119293   C159.152054,125.714844 159.361084,122.735809 159.570129,119.756775   C159.570129,119.756775 159.475800,119.676231 159.749832,119.680466   C160.259705,119.534904 160.495529,119.385094 160.731354,119.235275   C160.464783,119.079018 160.198227,118.922760 159.931656,118.766502   C160.001617,118.614967 160.071564,118.463440 160.616486,118.074051   C161.333359,117.479492 161.575272,117.122795 161.817184,116.766098   C161.817184,116.766098 161.629425,116.836823 161.862244,116.673615   C162.243698,116.194870 162.392365,115.879341 162.541016,115.563805   C162.541016,115.563805 162.503555,115.514290 162.505035,115.483276  z"/>
<path fill="#761E11" opacity="1.000000" stroke="none" d=" M183.090317,180.363632   C183.540161,179.468369 184.100677,178.915787 184.878265,178.592102   C188.139420,182.946564 190.279678,183.159653 195.562668,179.863129   C195.812897,179.889282 196.063141,179.915436 196.688995,179.978180   C193.313675,185.528076 188.582581,185.764069 183.090317,180.363632  z"/>
<path fill="#7D2111" opacity="1.000000" stroke="none" d=" M159.302979,120.015633   C159.361084,122.735809 159.152054,125.714844 158.934357,129.124893   C158.962402,126.462105 158.999115,123.368294 159.302979,120.015633  z"/>
<path fill="#7D2111" opacity="1.000000" stroke="none" d=" M158.654388,130.158371   C158.997726,130.384689 159.358566,130.961838 159.703186,131.889984   C159.348602,131.663696 159.010254,131.086456 158.654388,130.158371  z"/>
<path fill="#7D2111" opacity="1.000000" stroke="none" d=" M159.808716,118.867340   C160.198227,118.922760 160.464783,119.079018 160.731354,119.235275   C160.495529,119.385094 160.259705,119.534904 159.776382,119.624420   C159.485306,119.340248 159.537613,119.141594 159.808716,118.867340  z"/>
<path fill="#7D2111" opacity="1.000000" stroke="none" d=" M162.282135,115.639931   C162.392365,115.879341 162.243698,116.194870 161.826752,116.579788   C161.713379,116.338135 161.868317,116.027100 162.282135,115.639931  z"/>
<path fill="#7D2111" opacity="1.000000" stroke="none" d=" M161.447388,116.849327   C161.575272,117.122795 161.333359,117.479492 160.866837,118.073120   C160.787354,117.850891 160.932465,117.391724 161.447388,116.849327  z"/>
<path fill="#FAC62B" opacity="1.000000" stroke="none" d=" M212.802750,106.853394   C212.643951,106.906456 212.297058,106.743996 211.791077,106.317879   C211.959564,106.248772 212.287094,106.443329 212.802750,106.853394  z"/>
<path fill="#D7331D" opacity="1.000000" stroke="none" d=" M203.965546,210.041168   C200.535400,205.529663 200.568527,200.831833 202.789322,196.103485   C203.439102,199.597305 204.091919,203.107544 205.070129,206.855469   C207.291199,208.338409 209.416321,209.576614 205.176666,211.038025   C204.837662,211.075958 204.898544,211.023270 204.926270,210.842987   C204.624496,210.455536 204.295029,210.248352 203.965546,210.041168  z"/>
<path fill="#F1E7E5" opacity="1.000000" stroke="none" d=" M217.514587,165.039505   C216.103149,164.341309 214.494095,163.696625 214.175476,162.656586   C213.818527,161.491409 214.416428,159.857498 215.040344,158.656998   C215.280930,158.194077 217.228165,157.948013 217.542297,158.321899   C218.406784,159.350891 219.155365,160.724487 219.293732,162.031204   C219.389297,162.933884 218.394135,163.952026 217.514587,165.039505  z"/>
<path fill="#F1E9E7" opacity="1.000000" stroke="none" d=" M157.767792,160.965302   C159.344238,161.040070 161.490494,161.081039 161.795273,161.850967   C162.301804,163.130569 161.817062,164.942413 161.330475,166.389038   C161.186737,166.816422 158.866028,167.000366 158.837341,166.905350   C158.279999,165.057938 157.914749,163.152573 157.767792,160.965302  z"/>
<path fill="#FA4325" opacity="1.000000" stroke="none" d=" M159.963593,237.032074   C160.432846,229.347061 156.930725,220.590729 166.401489,214.911469   C170.436203,215.524460 173.736084,216.244583 177.035965,216.964706   C177.035965,216.964706 177.000656,217.000610 177.043976,217.258240   C177.407364,217.665680 177.727448,217.815506 178.047531,217.965332   C178.047531,217.965332 178.000778,217.999802 178.045166,218.256989   C178.408340,218.669983 178.727097,218.825806 179.045868,218.981628   C179.045868,218.981628 178.999374,218.999832 178.949066,219.330170   C179.615967,220.772339 180.333191,221.884186 181.050415,222.996033   C181.050415,222.996033 180.998947,223.002914 180.965744,223.371414   C180.976761,224.525558 181.020981,225.311203 181.065186,226.096848   C182.111191,231.197418 180.441483,235.245316 176.097733,238.021652   C170.794296,241.411346 165.653214,240.137878 160.308990,237.070740   C159.936508,237.066086 159.995865,237.002457 159.963593,237.032074  z"/>
<path fill="#E97A67" opacity="1.000000" stroke="none" d=" M176.900940,216.636597   C173.736084,216.244583 170.436203,215.524460 166.749786,214.779266   C170.278473,212.276245 173.575668,213.934525 176.900940,216.636597  z"/>
<path fill="#E97A67" opacity="1.000000" stroke="none" d=" M181.086975,222.651794   C180.333191,221.884186 179.615967,220.772339 178.964767,219.310760   C179.728378,220.076523 180.425949,221.192032 181.086975,222.651794  z"/>
<path fill="#E97A67" opacity="1.000000" stroke="none" d=" M181.335052,225.923676   C181.020981,225.311203 180.976761,224.525558 180.979370,223.349304   C181.219101,223.889313 181.412003,224.819901 181.335052,225.923676  z"/>
<path fill="#E97A67" opacity="1.000000" stroke="none" d=" M178.999237,218.710907   C178.727097,218.825806 178.408340,218.669983 178.062042,218.233368   C178.340546,218.115128 178.646576,218.277664 178.999237,218.710907  z"/>
<path fill="#E97A67" opacity="1.000000" stroke="none" d=" M178.006378,217.692474   C177.727448,217.815506 177.407364,217.665680 177.055847,217.236130   C177.338013,217.110809 177.651627,217.265213 178.006378,217.692474  z"/>
<path fill="#FA4325" opacity="1.000000" stroke="none" d=" M204.078125,210.261810   C204.295029,210.248352 204.624496,210.455536 204.957504,210.868378   C204.624146,210.981155 204.367386,210.783951 204.078125,210.261810  z"/>
<path fill="#FB4325" opacity="1.000000" stroke="none" d=" M162.043930,132.391220   C161.545227,126.973274 162.191727,122.143181 165.137192,117.421638   C171.177490,111.812698 178.253464,112.910950 183.468033,119.900818   C187.104187,124.774918 185.222916,133.470901 179.921524,137.207367   C175.137283,140.579346 165.190384,140.222412 162.043930,132.391220  z"/>
<path fill="#EE6395" opacity="1.000000" stroke="none" d=" M195.608063,179.501007   C190.279678,183.159653 188.139420,182.946564 185.139832,178.454834   C188.810349,177.080002 192.526489,175.172852 195.608063,179.501007  z"/>
<path fill="#F6D0A5" opacity="1.000000" stroke="none" d=" M169.549561,185.089996   C177.026642,188.033875 178.938217,194.029266 174.025238,197.847153   C169.930801,195.838455 167.520935,192.507111 166.998581,188.053497   C166.893448,187.157181 168.382965,186.073853 169.549561,185.089996  z"/>
<path fill="#F2C99E" opacity="1.000000" stroke="none" d=" M132.892731,203.879211   C130.454147,203.231277 128.243393,202.934250 125.670013,202.588501   C125.012878,199.105179 127.078896,196.389053 129.841034,195.916565   C133.306717,195.323730 137.702423,194.382721 140.493576,199.196136   C135.820068,200.791138 133.638290,203.412308 137.098160,207.874557   C133.954941,208.534164 133.954941,208.534164 132.892731,203.879211  z"/>
<path fill="#F3CCA2" opacity="1.000000" stroke="none" d=" M242.847626,182.722565   C246.593674,182.311493 250.043365,182.129639 253.493042,181.947784   C253.858231,182.481277 254.223419,183.014771 254.588608,183.548264   C250.667145,186.368393 247.222900,189.289108 252.054947,194.028458   C250.392044,193.936005 248.614029,193.970551 248.597641,193.817047   C247.893555,187.221466 243.536743,190.298279 240.219284,190.924255   C238.431946,187.270279 240.388657,185.080093 242.847626,182.722565  z"/>
</svg>